:SAMPLES-PER-SECOND 30
:FULLY-SPECIFIED
:DEGREES
367
root  11.331 38.7519 0.669009 -64.3923 -77.1596 65.0189
RightUpLeg  -22.9582 9.24418 -13.7337
RightLeg  41.2247 -6.93775 -6.74874
RightFoot  -7.68939 -0.377525 10.2061
RightToes  -5.28226e-011 1.30204e-014 -6.03759e-014
Spine  11.5047 -5.23246 2.14125
Spine1  -4.49792 -2.83723 -17.0681
HEad  -0.113464 4.29938 -3.80347
LeftShoulder1  0.316145 2.05197 -14.8669
LeftArm  -62.4108 8.51181 -33.5001
LeftForeArm  -63.1125 -59.0357 -22.2825
LeftHand  0.677276 -5.21295 -7.09298
RightShoulder  0.584987 -0.634734 13.5487
RightArm  -70.7427 0.352895 43.2384
RightForeArm  -51.1416 54.3879 18.6509
RightHand  2.91359 10.5227 20.5142
LeftUpLeg  -7.75701 -2.86415 -16.7702
LeftLeg  16.827 7.50015 2.22105
LeftFoot  -8.61416 0.0832227 -1.33055
LeftToes  -2.42178e-010 -1.66495e-011 -2.88221e-011
368
root  11.2723 38.3556 0.955678 -69.2744 -73.6707 69.7592
RightUpLeg  -23.8414 12.0307 -18.2225
RightLeg  44.3994 -7.9655 -8.55789
RightFoot  -9.8729 -0.21191 11.4533
RightToes  -5.28226e-011 1.30204e-014 -6.03759e-014
Spine  11.0125 -6.43753 4.71504
Spine1  -4.87413 -2.92803 -24.8507
HEad  0.561099 3.46021 -3.10787
LeftShoulder1  0.193072 2.61152 -14.7443
LeftArm  -63.1954 6.872 -33.5703
LeftForeArm  -64.7158 -57.7131 -21.1739
LeftHand  0.639348 -4.58158 -7.14763
RightShoulder  0.574194 -0.652293 13.2695
RightArm  -70.5711 -0.704055 44.8815
RightForeArm  -51.6982 53.9609 18.3798
RightHand  2.64707 10.0224 19.2596
LeftUpLeg  -7.6423 -3.55023 -20.4427
LeftLeg  17.5283 8.54783 1.08493
LeftFoot  -9.71696 0.0822266 -1.7143
LeftToes  -2.42178e-010 -1.66495e-011 -2.88221e-011
369
root  11.275 38.0494 1.07598 -69.6708 -71.4502 70.0428
RightUpLeg  -23.6435 14.7952 -20.6087
RightLeg  45.8382 -10.2019 -11.332
RightFoot  -12.6473 0.0569996 12.6647
RightToes  -5.28226e-011 1.30204e-014 -6.03759e-014
Spine  10.9184 -7.27884 6.30391
Spine1  -5.29257 -3.2602 -28.8162
HEad  1.04629 2.81727 -3.10482
LeftShoulder1  0.138521 2.8722 -15.0341
LeftArm  -63.5486 5.9155 -34.0866
LeftForeArm  -65.7676 -56.8081 -20.4669
LeftHand  0.626297 -4.06796 -7.41114
RightShoulder  0.592193 -0.561373 13.2523
RightArm  -69.944 -1.35195 44.8627
RightForeArm  -52.3078 52.7446 17.6236
RightHand  2.58562 10.2405 18.5393
LeftUpLeg  -8.27479 -3.42224 -22.4139
LeftLeg  19.4031 8.09587 0.25911
LeftFoot  -11.151 0.0705565 -2.1364
LeftToes  -2.42178e-010 -1.66495e-011 -2.88221e-011
370
root  11.3201 37.9028 1.06738 -69.9473 -70.8279 70.2123
RightUpLeg  -23.0948 17.2105 -21.0172
RightLeg  45.976 -12.128 -13.3842
RightFoot  -14.621 0.26294 12.6626
RightToes  -5.28226e-011 1.30204e-014 -6.03759e-014
Spine  11.372 -7.44521 7.05962
Spine1  -5.73836 -3.31516 -29.759
HEad  1.18167 2.47736 -3.65902
LeftShoulder1  0.215759 2.55212 -15.8144
LeftArm  -63.3156 5.83128 -34.6958
LeftForeArm  -66.1177 -55.7997 -19.7263
LeftHand  0.663036 -4.17944 -7.75921
RightShoulder  0.628311 -0.404895 13.4117
RightArm  -69.1359 -1.96775 44.0397
RightForeArm  -53.0495 50.8639 16.5353
RightHand  2.60646 10.5603 18.3064
LeftUpLeg  -8.955 -2.13419 -23.0118
LeftLeg  20.9718 6.61614 0.0650165
LeftFoot  -11.9934 0.0579618 -2.47639
LeftToes  -2.42178e-010 -1.66495e-011 -2.88221e-011
371
root  11.3821 37.9432 0.973291 -71.5099 -71.5291 71.8392
RightUpLeg  -22.8678 17.9528 -20.2956
RightLeg  44.9094 -12.3381 -13.1307
RightFoot  -15.0536 0.277274 11.6568
RightToes  -5.28226e-011 1.30204e-014 -6.03759e-014
Spine  12.0336 -7.0801 7.55446
Spine1  -6.13753 -2.92246 -29.6443
HEad  0.644746 2.45681 -4.07688
LeftShoulder1  0.369616 1.91942 -16.5842
LeftArm  -62.6514 6.28902 -35.303
LeftForeArm  -66.3498 -54.3548 -18.7363
LeftHand  0.749994 -4.55634 -8.45279
RightShoulder  0.670548 -0.242106 13.7202
RightArm  -68.8648 -2.61843 43.7002
RightForeArm  -53.8647 48.8242 15.4628
RightHand  2.54373 10.2306 18.2487
LeftUpLeg  -9.36094 -1.68195 -22.5325
LeftLeg  21.2071 6.73098 0.60256
LeftFoot  -11.8874 0.0575352 -2.92365
LeftToes  -2.42178e-010 -1.66495e-011 -2.88221e-011
372
root  11.4496 38.1543 0.78516 -72.6599 -73.068 73.2467
RightUpLeg  -22.6218 16.079 -18.7507
RightLeg  42.4898 -10.8965 -10.7869
RightFoot  -14.2664 0.168726 10.3611
RightToes  -5.28226e-011 1.30204e-014 -6.03759e-014
Spine  12.4902 -6.61977 7.8431
Spine1  -6.2536 -2.46558 -28.9128
HEad  -0.470145 2.65003 -3.92379
LeftShoulder1  0.511852 1.34903 -17.052
LeftArm  -61.9803 6.91464 -36.1145
LeftForeArm  -66.7916 -52.5904 -17.6249
LeftHand  0.872241 -4.97209 -9.44173
RightShoulder  0.734352 -0.00386089 14.1795
RightArm  -69.2279 -3.15688 44.0865
RightForeArm  -54.6665 46.7035 14.4515
RightHand  2.38701 9.34639 18.171
LeftUpLeg  -9.44233 -2.25023 -20.9495
LeftLeg  20.2647 7.9789 1.24272
LeftFoot  -11.2454 0.0701767 -3.43408
LeftToes  -2.42178e-010 -1.66495e-011 -2.88221e-011
373
root  11.5176 38.4858 0.473899 -70.439 -75.2494 71.2092
RightUpLeg  -21.4519 12.4722 -15.9371
RightLeg  38.7002 -9.01095 -7.92644
RightFoot  -12.9407 0.0388131 9.05418
RightToes  -5.28226e-011 1.30204e-014 -6.03759e-014
Spine  12.7909 -6.23184 7.51596
Spine1  -6.03036 -2.31431 -26.4334
HEad  -1.44549 2.84044 -3.31671
LeftShoulder1  0.644234 0.826626 -17.3841
LeftArm  -61.7151 7.56784 -37.3952
LeftForeArm  -66.8843 -50.744 -16.5654
LeftHand  1.0059 -5.94142 -9.94276
RightShoulder  0.838323 0.381312 14.8252
RightArm  -69.4697 -3.67836 44.316
RightForeArm  -55.3154 44.1182 13.3307
RightHand  2.26567 8.67398 18.0884
LeftUpLeg  -9.2479 -2.04588 -18.1808
LeftLeg  19.0352 7.28145 1.37435
LeftFoot  -10.4389 0.0952867 -4.12076
LeftToes  -2.42178e-010 -1.66495e-011 -2.88221e-011
374
root  11.5923 38.8693 0.0463683 -62.181 -77.9395 62.9771
RightUpLeg  -19.2815 8.96045 -11.7255
RightLeg  33.7895 -7.76739 -5.79224
RightFoot  -11.2939 -0.0802177 7.89619
RightToes  -5.28226e-011 1.30204e-014 -6.03759e-014
Spine  13.2089 -5.70277 6.48063
Spine1  -5.85222 -2.41402 -21.5794
HEad  -1.66179 2.79918 -2.51365
LeftShoulder1  0.809206 0.180057 -17.6977
LeftArm  -61.8684 8.13154 -39.3205
LeftForeArm  -66.3523 -48.7588 -15.527
LeftHand  1.09593 -7.50796 -9.46448
RightShoulder  0.959403 0.792853 15.6468
RightArm  -69.0243 -4.47755 43.6783
RightForeArm  -55.5682 40.9379 12.0856
RightHand  2.27548 8.86326 17.9208
LeftUpLeg  -9.37737 -0.962778 -14.2279
LeftLeg  18.6912 4.48495 1.22217
LeftFoot  -9.46644 0.148402 -5.53021
LeftToes  -2.42178e-010 -1.66495e-011 -2.88221e-011
375
root  11.6741 39.2127 -0.452867 -45.1448 -80.5362 46.0347
RightUpLeg  -16.9554 6.69375 -6.61163
RightLeg  28.4458 -7.64402 -4.67833
RightFoot  -9.16624 -0.196033 7.02869
RightToes  -5.28226e-011 1.30204e-014 -6.03759e-014
Spine  13.7831 -4.80797 5.06632
Spine1  -6.11789 -2.45122 -15.1365
HEad  -1.31412 2.39978 -1.55989
LeftShoulder1  0.979654 -0.513192 -17.7545
LeftArm  -61.9414 8.34378 -41.9104
LeftForeArm  -66.0245 -46.3906 -14.4009
LeftHand  1.11364 -8.61965 -8.79587
RightShoulder  1.04591 1.01498 16.5428
RightArm  -68.2905 -5.51376 42.3321
RightForeArm  -55.4035 37.4906 10.8762
RightHand  2.38069 9.89412 17.4612
LeftUpLeg  -10.8517 -0.617985 -9.39283
LeftLeg  20.5007 2.74406 1.45152
LeftFoot  -8.71264 0.228043 -7.69786
LeftToes  -2.42178e-010 -1.66495e-011 -2.88221e-011
376
root  11.7339 39.4561 -0.971341 -18.364 -82.0213 19.3833
RightUpLeg  -14.8143 5.55681 -1.20258
RightLeg  23.1611 -8.40583 -4.12498
RightFoot  -6.69672 -0.294199 6.14679
RightToes  -5.28226e-011 1.30204e-014 -6.03759e-014
Spine  14.2793 -3.53791 3.42178
Spine1  -6.54837 -2.21973 -8.21099
HEad  -1.05657 1.72856 -0.388278
LeftShoulder1  1.11384 -1.13379 -17.3581
LeftArm  -61.3461 8.07114 -44.826
LeftForeArm  -66.5833 -43.5704 -13.1954
LeftHand  1.11537 -8.57646 -8.84564
RightShoulder  1.08202 1.01653 17.4061
RightArm  -68.1642 -6.26974 40.8042
RightForeArm  -55.2187 33.9973 9.77828
RightHand  2.48796 10.9843 17.0027
LeftUpLeg  -13.6885 -1.69139 -4.11483
LeftLeg  24.6645 3.7164 2.22544
LeftFoot  -8.71434 0.263723 -9.22201
LeftToes  -2.42178e-010 -1.66495e-011 -2.88221e-011
377
root  11.7252 39.5757 -1.47435 11.0463 -81.6587 -10.2175
RightUpLeg  -12.4524 4.2556 4.16527
RightLeg  18.0741 -8.70507 -3.48372
RightFoot  -4.5758 -0.329163 5.02952
RightToes  -5.28226e-011 1.30204e-014 -6.03759e-014
Spine  14.4117 -2.05658 1.36002
Spine1  -6.45458 -1.83833 -1.07556
HEad  -1.10201 1.07066 0.970298
LeftShoulder1  1.25727 -1.85713 -16.7493
LeftArm  -59.9754 7.58209 -47.372
LeftForeArm  -67.4909 -40.5091 -12.0241
LeftHand  1.11018 -8.00934 -9.19964
RightShoulder  1.1009 0.964419 18.1703
RightArm  -69.0358 -6.29392 39.428
RightForeArm  -55.3601 30.4032 8.76479
RightHand  2.53959 11.1985 17.1337
LeftUpLeg  -16.6983 -2.80712 0.950687
LeftLeg  30.0399 4.9991 3.46689
LeftFoot  -9.0673 0.225106 -8.58566
LeftToes  -2.42178e-010 -1.66495e-011 -2.88221e-011
378
root  11.6314 39.5414 -1.94637 31.9294 -79.7402 -31.6133
RightUpLeg  -10.0602 2.24515 9.12352
RightLeg  13.823 -7.84662 -2.53201
RightFoot  -3.5055 -0.318436 4.28454
RightToes  -5.28226e-011 1.30204e-014 -6.03759e-014
Spine  13.9594 -0.601628 -1.35151
Spine1  -5.75853 -1.621 6.41329
HEad  -1.14854 0.652437 2.36018
LeftShoulder1  1.46772 -2.8706 -16.2875
LeftArm  -58.3308 7.29382 -49.121
LeftForeArm  -67.9469 -37.5721 -11.0097
LeftHand  1.07184 -7.75483 -9.05674
RightShoulder  1.11724 0.937886 18.7319
RightArm  -70.4907 -5.65983 38.3434
RightForeArm  -55.483 26.8014 7.84796
RightHand  2.48307 10.5463 17.4465
LeftUpLeg  -19.0401 -4.645 5.56262
LeftLeg  35.2254 5.91589 4.82907
LeftFoot  -8.74361 0.201612 -6.64386
LeftToes  -2.42178e-010 -1.66495e-011 -2.88221e-011
379
root  11.4906 39.3574 -2.36583 44.1738 -77.1286 -44.2313
RightUpLeg  -8.53673 2.68302 13.0804
RightLeg  11.2542 -9.03271 -1.34842
RightFoot  -3.40337 -0.334367 4.48615
RightToes  -5.28226e-011 1.30204e-014 -6.03759e-014
Spine  13.0313 0.64855 -4.36176
Spine1  -5.00987 -1.68574 14.0168
HEad  -1.16788 0.437794 3.52106
LeftShoulder1  1.69156 -3.94026 -15.9656
LeftArm  -57.0792 7.24638 -50.3926
LeftForeArm  -67.9148 -35.0841 -10.2199
LeftHand  1.01466 -7.8078 -8.51862
RightShoulder  1.10126 0.832395 18.9984
RightArm  -70.6572 -4.58654 37.5674
RightForeArm  -56.129 23.6272 6.48859
RightHand  2.32837 10.1628 16.776
LeftUpLeg  -20.8517 -7.49911 9.85134
LeftLeg  39.3275 6.93869 6.4323
LeftFoot  -7.76333 0.250241 -6.40053
LeftToes  -2.42178e-010 -1.66495e-011 -2.88221e-011
380
root  11.3634 39.0221 -2.7024 52.5486 -74.4188 -52.7225
RightUpLeg  -8.56471 3.72953 16.7809
RightLeg  11.2086 -10.4976 -0.764563
RightFoot  -4.21957 -0.350338 5.16605
RightToes  -5.28226e-011 1.30204e-014 -6.03759e-014
Spine  11.9482 1.69643 -7.03048
Spine1  -4.44358 -1.85534 21.085
HEad  -1.6124 0.353774 4.15427
LeftShoulder1  1.81242 -4.614 -15.5335
LeftArm  -56.5176 7.1207 -51.7765
LeftForeArm  -67.7635 -33.2201 -9.66435
LeftHand  0.966152 -7.82103 -8.08592
RightShoulder  1.05097 0.62373 19.076
RightArm  -66.2467 -2.83307 36.911
RightForeArm  -60.3788 21.1931 3.39364
RightHand  2.16608 10.6438 15.1093
LeftUpLeg  -22.3767 -10.8643 14.0481
LeftLeg  42.6011 8.53961 8.70402
LeftFoot  -8.07729 0.307867 -9.35776
LeftToes  -2.42178e-010 -1.66495e-011 -2.88221e-011
381
root  11.2869 38.6556 -2.94182 59.2324 -72.0377 -59.6142
RightUpLeg  -9.27653 4.93849 20.0261
RightLeg  12.6593 -11.7147 -0.502834
RightFoot  -5.39688 -0.330851 5.65629
RightToes  -5.28226e-011 1.30204e-014 -6.03759e-014
Spine  10.9655 2.61212 -9.18453
Spine1  -3.61517 -2.03624 27.032
HEad  -2.59199 0.505883 4.21836
LeftShoulder1  1.81079 -4.79045 -14.9928
LeftArm  -56.4689 6.80423 -53.3231
LeftForeArm  -67.7501 -31.9083 -9.29064
LeftHand  0.918414 -7.58752 -7.81834
RightShoulder  1.02971 0.519652 19.22
RightArm  -59.9923 -0.346023 36.0788
RightForeArm  -66.2185 18.7584 0.0520604
RightHand  2.01592 10.8346 13.8618
LeftUpLeg  -22.8539 -14.2 17.8629
LeftLeg  44.6749 10.5466 11.3443
LeftFoot  -10.7947 0.124678 -13.1137
LeftToes  -2.42178e-010 -1.66495e-011 -2.88221e-011
